# xmcd CD database file
#
# Track frame offsets:
#	150
#	12040
#	26360
#	42030
#	59945
#	80225
#	90767
#	99780
#	107445
#	122352
#	135385
#	149420
#	166585
#	184632
#	194072
#	204259
#
# Disc length: 2890 seconds
#
# Revision: 3
# Processed by: cddbd v1.5.1PL0 Copyright (c) Steve Scherf et al.
# Submitted via: CDex 1.51
#
DISCID=c10b4810
DTITLE=Damita Jo - The Very Best Of
DYEAR=1900
DGENRE=Easy Listening
TTITLE0=I Had Someone Else Before I Had You
TTITLE1=Love Is Here To Stay
TTITLE2=Nobody Knows You When You're Down And Out
TTITLE3=Happiness Is A Thing Called Joe
TTITLE4=I'll Get Along Somehow
TTITLE5=Bye Bye Love
TTITLE6=Alice Blue Gown
TTITLE7=It Could Happen To You
TTITLE8=If You Are But A Dream
TTITLE9=Silver Dollar
TTITLE10=I Could Have Told You
TTITLE11=He Loves Me
TTITLE12=If You Go Away
TTITLE13=Love, I Found You
TTITLE14=I'll Save The Last Dance For You
TTITLE15=I'll Be There
EXTD=
EXTT0=
EXTT1=
EXTT2=
EXTT3=
EXTT4=
EXTT5=
EXTT6=
EXTT7=
EXTT8=
EXTT9=
EXTT10=
EXTT11=
EXTT12=
EXTT13=
EXTT14=
EXTT15=
PLAYORDER=
